<svg
    xmlns="http://www.w3.org/2000/svg"
    viewBox="0 0 512 512"
    id="vector">
    <path
        id="path"
        d="M 511.812 167.164 C 508.179 89.995 448.439 29.1 377.056 28.529 C 376.704 28.529 376.368 28.529 376.016 28.529 C 310.053 28.529 273.286 76.942 256 109.624 C 238.715 76.943 201.948 28.529 135.985 28.529 C 135.633 28.529 135.282 28.529 134.945 28.529 C 63.562 29.101 3.821 89.995 0.188 167.164 C -4.28 261.794 71.223 325.296 184.002 421.389 C 203.528 438.03 224.3 455.725 246.127 474.828 L 256 483.471 L 265.873 474.829 C 287.699 455.727 308.471 438.032 327.998 421.39 C 440.777 325.295 516.28 261.794 511.812 167.164 Z"/>
</svg>
