<svg
    xmlns="http://www.w3.org/2000/svg"
    viewBox="0 0 512 165"
    id="vector">
    <path
        d="M 345.658 50.832 C 344.384 23.784 323.445 2.441 298.426 2.24 C 298.303 2.24 298.185 2.24 298.061 2.24 C 274.941 2.24 262.054 19.209 255.996 30.664 C 249.938 19.209 237.051 2.24 213.931 2.24 C 213.808 2.24 213.685 2.24 213.566 2.24 C 188.546 2.441 167.607 23.784 166.334 50.832 C 164.768 84 191.232 106.257 230.761 139.938 C 237.605 145.771 244.885 151.973 252.536 158.668 L 255.996 161.697 L 259.456 158.668 C 267.106 151.973 274.387 145.771 281.231 139.938 C 320.76 106.257 347.224 84 345.658 50.832 Z"/>
    <path
        d="M 511.946 61.314 C 511.071 42.716 496.68 28.041 479.484 27.903 C 479.399 27.903 479.318 27.903 479.233 27.903 C 463.343 27.903 454.486 39.57 450.322 47.447 C 446.158 39.571 437.301 27.903 421.411 27.903 C 421.326 27.903 421.242 27.903 421.16 27.903 C 403.966 28.041 389.575 42.716 388.699 61.314 C 387.623 84.119 405.811 99.423 432.979 122.581 C 437.683 126.591 442.687 130.856 447.944 135.46 L 450.322 137.543 L 452.7 135.46 C 457.958 130.856 462.962 126.592 467.665 122.581 C 494.834 99.423 513.022 84.119 511.946 61.314 Z"/>
    <path
        d="M 123.292 60.868 C 122.417 42.271 108.026 27.595 90.83 27.458 C 90.745 27.458 90.664 27.458 90.579 27.458 C 74.689 27.458 65.832 39.125 61.668 47.002 C 57.504 39.126 48.647 27.458 32.757 27.458 C 32.672 27.458 32.588 27.458 32.506 27.458 C 15.312 27.595 0.921 42.271 0.045 60.868 C -1.031 83.673 17.157 98.977 44.325 122.135 C 49.029 126.145 54.033 130.41 59.29 135.014 L 61.668 137.097 L 64.046 135.014 C 69.304 130.41 74.308 126.146 79.011 122.135 C 106.18 98.977 124.368 83.674 123.292 60.868 Z"/>
</svg>
