<svg width="492" height="10" viewBox="0 0 492 10" xmlns="http://www.w3.org/2000/svg">
 <!-- Created with SVG Editor - http://github.com/mzalive/SVG Editor/ -->

 <g>
  <title>background</title>
  <rect fill="none" id="canvas_background" height="12" width="494" y="-1" x="-1"/>
  <g display="none" overflow="visible" y="0" x="0" height="100%" width="100%" id="canvasGrid">
   <rect fill="url(#gridpattern)" stroke-width="0" y="0" x="0" height="100%" width="100%"/>
  </g>
 </g>
 <g>
  <title>Layer 1</title>
  <g id="svg_23">
   <g transform="matrix(1.202152676340837,0,0,0.13526026584025472,-2591.0502790337428,-136.9587225649905) " id="svg_5">
    <g id="svg_6">
     <path id="svg_7" d="m2547.87498,1032.455844l-375.466,0c-9.426,0 -17.067,7.641 -17.067,17.067s7.641,17.067 17.067,17.067l375.467,0c9.426,0 17.067,-7.641 17.067,-17.067s-7.642,-17.067 -17.068,-17.067z"/>
    </g>
   </g>
   <g transform="matrix(1.202152676340837,0,0,0.13526026584025472,-2591.0502790337428,-136.9587225649905) " id="svg_8"/>
   <g transform="matrix(1.202152676340837,0,0,0.13526026584025472,-2591.0502790337428,-136.9587225649905) " id="svg_9"/>
   <g transform="matrix(1.202152676340837,0,0,0.13526026584025472,-2591.0502790337428,-136.9587225649905) " id="svg_10"/>
   <g transform="matrix(1.202152676340837,0,0,0.13526026584025472,-2591.0502790337428,-136.9587225649905) " id="svg_11"/>
   <g transform="matrix(1.202152676340837,0,0,0.13526026584025472,-2591.0502790337428,-136.9587225649905) " id="svg_12"/>
   <g transform="matrix(1.202152676340837,0,0,0.13526026584025472,-2591.0502790337428,-136.9587225649905) " id="svg_13"/>
   <g transform="matrix(1.202152676340837,0,0,0.13526026584025472,-2591.0502790337428,-136.9587225649905) " id="svg_14"/>
   <g transform="matrix(1.202152676340837,0,0,0.13526026584025472,-2591.0502790337428,-136.9587225649905) " id="svg_15"/>
   <g transform="matrix(1.202152676340837,0,0,0.13526026584025472,-2591.0502790337428,-136.9587225649905) " id="svg_16"/>
   <g transform="matrix(1.202152676340837,0,0,0.13526026584025472,-2591.0502790337428,-136.9587225649905) " id="svg_17"/>
   <g transform="matrix(1.202152676340837,0,0,0.13526026584025472,-2591.0502790337428,-136.9587225649905) " id="svg_18"/>
   <g transform="matrix(1.202152676340837,0,0,0.13526026584025472,-2591.0502790337428,-136.9587225649905) " id="svg_19"/>
   <g transform="matrix(1.202152676340837,0,0,0.13526026584025472,-2591.0502790337428,-136.9587225649905) " id="svg_20"/>
   <g transform="matrix(1.202152676340837,0,0,0.13526026584025472,-2591.0502790337428,-136.9587225649905) " id="svg_21"/>
   <g transform="matrix(1.202152676340837,0,0,0.13526026584025472,-2591.0502790337428,-136.9587225649905) " id="svg_22"/>
  </g>
 </g>
</svg>