<svg viewBox="0 0 582 62" xmlns="http://www.w3.org/2000/svg">

 <g>
  <g display="none" overflow="visible" y="0" x="0" height="100%" width="100%" id="canvasGrid">
   <rect fill="url(#gridpattern)" stroke-width="0" y="1" x="1" height="400" width="580"/>
  </g>
 </g>
 <g>
  <g id="svg_8">
   <g id="svg_5" transform="matrix(0.045474982163941566,0,0,-0.045474982163941566,-11143.276169752198,-7553.999395106448) ">
    <path id="svg_6" d="m245697.408819,-166128.339409c-393,-71 -679,-383 -654,-715c10,-138 67,-253 178,-354c125,-114 283,-169 421,-146c39,7 98,25 131,41c66,32 149,98 168,133c10,21 10,21 -8,5c-35,-31 -145,-76 -216,-89c-208,-37 -396,58 -490,249c-30,61 -33,74 -33,162c0,86 3,101 31,160c63,133 192,239 351,290c128,41 208,53 358,53c266,0 543,-92 828,-275c53,-35 214,-138 357,-231c143,-92 266,-170 275,-173c8,-3 34,-34 59,-68c108,-152 301,-286 468,-326c158,-38 442,-30 688,20c275,55 482,125 1010,340c497,202 670,263 885,311c498,112 768,118 1001,21c40,-17 97,-46 129,-67c31,-20 59,-34 61,-32c10,10 -160,169 -231,215c-157,103 -308,145 -520,146c-254,0 -463,-59 -1115,-314c-784,-307 -972,-373 -1245,-441c-480,-118 -782,-65 -1004,177c-71,78 -143,212 -161,301c-36,172 47,350 171,369c24,4 48,-2 79,-18c89,-45 132,-197 96,-338c-9,-36 -24,-76 -33,-90c-12,-19 -7,-17 21,10c21,19 52,64 69,100c29,59 32,73 32,160c0,81 -4,103 -26,150c-54,116 -155,189 -244,176c-114,-15 -206,-108 -260,-265c-27,-75 -35,-186 -21,-266l7,-41l-138,136c-154,151 -245,213 -483,331c-295,147 -534,210 -790,208c-69,0 -159,-7 -202,-15z"/>
    <path id="svg_7" d="m254359.408819,-166208.339409c-216,-25 -392,-61 -596,-120c-194,-56 -308,-97 -789,-281c-513,-198 -691,-255 -945,-307c-532,-107 -753,-108 -1012,-5c-43,17 -103,46 -134,65c-31,19 -59,34 -62,34c-4,0 23,-30 58,-66c157,-158 325,-248 546,-289c68,-13 123,-16 234,-12c284,10 478,67 1455,432c958,357 1377,447 1700,365c252,-64 453,-243 529,-472c54,-160 14,-319 -99,-393c-82,-54 -188,-17 -236,82c-43,90 -35,256 19,342c12,20 5,16 -27,-14c-23,-22 -56,-69 -74,-105c-28,-57 -32,-74 -32,-150c0,-74 4,-93 31,-150c59,-125 150,-186 263,-178c107,8 200,92 264,240c30,68 32,81 32,193c0,97 -4,131 -21,178c-12,31 -20,57 -20,57c1,0 51,-48 111,-106c135,-129 193,-175 315,-246c275,-161 555,-268 815,-313c147,-26 361,-24 493,4c230,48 415,155 527,303c217,286 165,614 -128,805c-98,64 -164,85 -279,91c-148,7 -255,-32 -367,-133c-46,-42 -55,-66 -13,-35c45,33 148,70 228,81c216,30 401,-65 502,-256c24,-44 27,-61 27,-150c0,-93 -2,-105 -33,-166c-22,-47 -53,-86 -101,-131c-84,-80 -155,-121 -263,-154c-396,-119 -818,-41 -1263,232c-301,185 -481,294 -595,360c-69,40 -154,97 -190,127c-146,121 -253,180 -395,218c-64,16 -117,21 -260,24c-99,2 -196,1 -215,-1z"/>
   </g>
  </g>
 </g>
</svg>