<svg
    xmlns="http://www.w3.org/2000/svg"
    viewBox="0 0 512 165"
    id="vector">
    <path
        id="path"
        d="M 343.987 62.451 C 342.822 59.016 339.645 56.584 335.901 56.26 L 284.833 51.814 L 264.649 6.509 C 263.16 3.18 259.769 1.032 255.995 1.032 C 252.222 1.032 248.83 3.18 247.349 6.509 L 227.167 51.814 L 176.09 56.26 C 172.346 56.591 169.175 59.023 168.004 62.451 C 166.839 65.885 167.914 69.653 170.746 72.034 L 209.35 104.49 L 197.968 152.557 C 197.135 156.091 198.566 159.746 201.623 161.865 C 203.268 163.011 205.2 163.583 207.138 163.583 C 208.803 163.583 210.47 163.158 211.959 162.304 L 255.995 137.058 L 300.023 162.304 C 303.253 164.155 307.315 163.985 310.366 161.865 C 313.425 159.746 314.856 156.091 314.023 152.557 L 302.641 104.49 L 341.244 72.034 C 344.075 69.653 345.152 65.893 343.987 62.451 Z M 256.843 136.57"
        />
    <path
        id="path_1"
        d="M 511.677 67.4 C 510.886 65.069 508.727 63.418 506.182 63.198 L 471.482 60.181 L 457.767 29.437 C 456.755 27.178 454.451 25.72 451.886 25.72 C 449.322 25.72 447.018 27.178 446.011 29.437 L 432.297 60.181 L 397.591 63.198 C 395.046 63.423 392.891 65.073 392.095 67.4 C 391.304 69.73 392.035 72.287 393.959 73.903 L 420.191 95.928 L 412.457 128.547 C 411.891 130.945 412.863 133.426 414.94 134.864 C 416.059 135.641 417.37 136.029 418.687 136.029 C 419.82 136.029 420.951 135.741 421.963 135.161 L 451.886 118.029 L 481.805 135.161 C 483.998 136.418 486.758 136.302 488.832 134.864 C 490.91 133.426 491.883 130.945 491.317 128.547 L 483.583 95.928 L 509.813 73.903 C 511.737 72.287 512.469 69.736 511.677 67.4 Z M 452.463 117.698"
        />
    <path
        id="path_2"
        d="M 119.896 67.917 C 119.105 65.586 116.946 63.935 114.401 63.715 L 79.701 60.698 L 65.986 29.954 C 64.974 27.695 62.67 26.237 60.106 26.237 C 57.541 26.237 55.236 27.695 54.23 29.954 L 40.516 60.698 L 5.81 63.715 C 3.265 63.94 1.11 65.59 0.314 67.917 C -0.477 70.247 0.254 72.804 2.178 74.42 L 28.41 96.445 L 20.676 129.064 C 20.11 131.462 21.083 133.943 23.159 135.381 C 24.278 136.158 25.589 136.546 26.906 136.546 C 28.039 136.546 29.17 136.258 30.182 135.678 L 60.106 118.546 L 90.023 135.678 C 92.217 136.935 94.977 136.819 97.05 135.381 C 99.13 133.943 100.102 131.462 99.536 129.064 L 91.802 96.445 L 118.031 74.42 C 119.956 72.804 120.688 70.253 119.896 67.917 Z M 60.681 118.215"
        />
</svg>
